<svg width="36" height="40" viewBox="0 0 36 40" fill="none" xmlns="http://www.w3.org/2000/svg">
<path d="M18.9333 31.9216C18.1516 32.7071 16.8802 32.7071 16.0984 31.9216L11.481 27.2829C7.21241 22.9945 0 26.0259 0 32.0888V38C0 39.1046 0.895431 40 2 40H33.0317C34.1363 40 35.0317 39.1046 35.0317 38V20.5929C35.0317 18.8089 32.8728 17.9176 31.6142 19.182L18.9333 31.9216Z" fill="#FF5D3C"/>
<path d="M16.0984 8.07839C16.8802 7.29298 18.1515 7.29298 18.9333 8.07839L23.5507 12.7172C27.8193 17.0055 35.0317 13.9741 35.0317 7.91127V2C35.0317 0.895432 34.1363 0 33.0317 0H2C0.895428 0 0 0.895431 0 2V19.4071C0 21.1912 2.15889 22.0825 3.41748 20.8181L16.0984 8.07839Z" fill="#FF5D3C"/>
</svg>
