<svg width="205" height="40" viewBox="0 0 205 40" fill="none" xmlns="http://www.w3.org/2000/svg">
<path d="M41.8599 29.9253V26.1794V20.0676V10.2099H50.7385C52.8605 10.2099 54.7311 10.623 56.3505 11.4491C57.9699 12.2565 59.2356 13.3925 60.1477 14.8571C61.0597 16.3216 61.5158 18.0585 61.5158 20.0676C61.5158 22.0579 61.0597 23.7947 60.1477 25.2781C59.2356 26.7426 57.9699 27.888 56.3505 28.7142C54.7311 29.5216 52.8605 29.9253 50.7385 29.9253H41.8599ZM46.383 26.1794H50.5152C51.8181 26.1794 52.9442 25.9353 53.8935 25.4471C54.8614 24.9401 55.606 24.2266 56.1271 23.3065C56.6669 22.3865 56.9368 21.3068 56.9368 20.0676C56.9368 18.8095 56.6669 17.7299 56.1271 16.8286C55.606 15.9086 54.8614 15.2044 53.8935 14.7162C52.9442 14.2093 51.8181 13.9558 50.5152 13.9558H46.383H41.8599V20.0676H46.383V26.1794Z" fill="white"/>
<path d="M62.642 29.9253V14.7726H66.9976V29.9253H62.642ZM64.8198 12.6602C64.0194 12.6602 63.368 12.4255 62.8654 11.9561C62.3628 11.4867 62.1116 10.9046 62.1116 10.2099C62.1116 9.51513 62.3628 8.93306 62.8654 8.46364C63.368 7.99423 64.0194 7.75952 64.8198 7.75952C65.6202 7.75952 66.2717 7.98484 66.7742 8.43548C67.2768 8.86734 67.5281 9.43064 67.5281 10.1254C67.5281 10.8577 67.2768 11.4679 66.7742 11.9561C66.2903 12.4255 65.6388 12.6602 64.8198 12.6602Z" fill="white"/>
<path d="M76.1261 35.6146C74.7115 35.6146 73.3434 35.4362 72.0218 35.0795C70.7189 34.7415 69.63 34.2251 68.7551 33.5304L70.4862 30.3759C71.1191 30.9017 71.9194 31.3147 72.8873 31.6152C73.8739 31.9344 74.8418 32.094 75.7911 32.094C77.336 32.094 78.4528 31.7466 79.1415 31.0519C79.8488 30.3571 80.2025 29.3244 80.2025 27.9537V25.6724L80.4817 21.8701L80.4258 18.0397V14.7726H84.558V27.3904C84.558 30.2069 83.8321 32.2817 82.3803 33.6149C80.9284 34.948 78.8437 35.6146 76.1261 35.6146ZM75.456 29.193C74.06 29.193 72.7943 28.8926 71.6588 28.2917C70.542 27.6721 69.6393 26.8178 68.9506 25.7287C68.2805 24.6209 67.9454 23.3347 67.9454 21.8701C67.9454 20.3868 68.2805 19.1006 68.9506 18.0115C69.6393 16.9037 70.542 16.0494 71.6588 15.4485C72.7943 14.8477 74.06 14.5473 75.456 14.5473C76.7217 14.5473 77.8385 14.8101 78.8065 15.3359C79.7744 15.8428 80.5282 16.6408 81.068 17.7299C81.6078 18.8002 81.8777 20.1802 81.8777 21.8701C81.8777 23.5412 81.6078 24.9213 81.068 26.0104C80.5282 27.0806 79.7744 27.8786 78.8065 28.4044C77.8385 28.9301 76.7217 29.193 75.456 29.193ZM76.3215 25.5879C77.0847 25.5879 77.7641 25.4377 78.3597 25.1373C78.9554 24.8181 79.4207 24.3768 79.7557 23.8135C80.0908 23.2502 80.2583 22.6024 80.2583 21.8701C80.2583 21.1191 80.0908 20.4713 79.7557 19.9267C79.4207 19.3635 78.9554 18.9316 78.3597 18.6312C77.7641 18.312 77.0847 18.1524 76.3215 18.1524C75.5584 18.1524 74.879 18.312 74.2834 18.6312C73.6877 18.9316 73.2131 19.3635 72.8594 19.9267C72.5244 20.4713 72.3569 21.1191 72.3569 21.8701C72.3569 22.6024 72.5244 23.2502 72.8594 23.8135C73.2131 24.3768 73.6877 24.8181 74.2834 25.1373C74.879 25.4377 75.5584 25.5879 76.3215 25.5879Z" fill="white"/>
<path d="M86.6342 29.9253V14.7726H90.9898V29.9253H86.6342ZM88.812 12.6602C88.0116 12.6602 87.3602 12.4255 86.8576 11.9561C86.355 11.4867 86.1038 10.9046 86.1038 10.2099C86.1038 9.51513 86.355 8.93306 86.8576 8.46364C87.3602 7.99423 88.0116 7.75952 88.812 7.75952C89.6124 7.75952 90.2639 7.98484 90.7665 8.43548C91.269 8.86734 91.5203 9.43064 91.5203 10.1254C91.5203 10.8577 91.269 11.4679 90.7665 11.9561C90.2825 12.4255 89.631 12.6602 88.812 12.6602Z" fill="white"/>
<path d="M99.1969 30.1506C97.4286 30.1506 96.0512 29.7 95.0647 28.7987C94.0782 27.8786 93.585 26.5173 93.585 24.7148V11.421H97.9405V24.6585C97.9405 25.2969 98.108 25.7944 98.4431 26.1512C98.7781 26.4892 99.2342 26.6582 99.8112 26.6582C100.5 26.6582 101.086 26.4704 101.57 26.0949L102.743 29.193C102.296 29.5122 101.756 29.7563 101.123 29.9253C100.509 30.0755 99.867 30.1506 99.1969 30.1506ZM91.2676 18.4903V15.1106H101.682V18.4903H91.2676Z" fill="white"/>
<path d="M112.424 29.9253V26.968L112.145 26.3202V21.0252C112.145 20.0864 111.856 19.3541 111.279 18.8283C110.721 18.3026 109.855 18.0397 108.683 18.0397C107.882 18.0397 107.091 18.1711 106.309 18.434C105.546 18.6781 104.895 19.0161 104.355 19.4479L102.791 16.378C103.61 15.7959 104.597 15.3453 105.751 15.0261C106.905 14.7069 108.078 14.5473 109.269 14.5473C111.558 14.5473 113.336 15.0918 114.602 16.1808C115.867 17.2699 116.5 18.9691 116.5 21.2787V29.9253H112.424ZM107.845 30.1506C106.672 30.1506 105.667 29.9534 104.829 29.5591C103.992 29.1461 103.35 28.5921 102.903 27.8974C102.456 27.2027 102.233 26.4234 102.233 25.5597C102.233 24.6584 102.447 23.8698 102.875 23.1939C103.322 22.5179 104.02 21.9922 104.969 21.6166C105.918 21.2223 107.156 21.0252 108.683 21.0252H112.675V23.5882H109.157C108.133 23.5882 107.426 23.7572 107.035 24.0952C106.663 24.4331 106.477 24.8556 106.477 25.3626C106.477 25.9259 106.691 26.3765 107.119 26.7145C107.566 27.0337 108.171 27.1933 108.934 27.1933C109.66 27.1933 110.311 27.0243 110.888 26.6863C111.465 26.3296 111.884 25.8132 112.145 25.1373L112.815 27.1651C112.498 28.1415 111.921 28.8832 111.084 29.3901C110.246 29.8971 109.166 30.1506 107.845 30.1506Z" fill="white"/>
<path d="M118.465 29.9253V9.02694H122.82V29.9253H118.465Z" fill="white"/>
<path d="M144.122 14.5473C145.313 14.5473 146.365 14.7914 147.277 15.2795C148.207 15.749 148.933 16.4812 149.455 17.4764C149.994 18.4528 150.264 19.7108 150.264 21.2505V29.9253H145.909V21.9265C145.909 20.706 145.657 19.8047 145.155 19.2226C144.652 18.6406 143.945 18.3495 143.033 18.3495C142.4 18.3495 141.832 18.4997 141.33 18.8002C140.827 19.0818 140.436 19.5137 140.157 20.0957C139.878 20.6778 139.738 21.4195 139.738 22.3208V29.9253H135.383V21.9265C135.383 20.706 135.131 19.8047 134.629 19.2226C134.145 18.6406 133.447 18.3495 132.535 18.3495C131.902 18.3495 131.334 18.4997 130.832 18.8002C130.329 19.0818 129.938 19.5137 129.659 20.0957C129.38 20.6778 129.24 21.4195 129.24 22.3208V29.9253H124.885V14.7726H129.045V18.9128L128.263 17.7017C128.784 16.669 129.519 15.8898 130.469 15.364C131.437 14.8195 132.535 14.5473 133.763 14.5473C135.141 14.5473 136.341 14.904 137.365 15.6175C138.407 16.3123 139.096 17.3825 139.431 18.8283L137.896 18.4058C138.398 17.2229 139.199 16.2841 140.297 15.5894C141.414 14.8946 142.689 14.5473 144.122 14.5473Z" fill="white"/>
<path d="M159.754 30.1506C158.042 30.1506 156.534 29.8126 155.231 29.1367C153.947 28.4607 152.951 27.5407 152.244 26.3765C151.537 25.1936 151.183 23.8511 151.183 22.3489C151.183 20.828 151.527 19.4855 152.216 18.3214C152.923 17.1384 153.882 16.2184 155.092 15.5612C156.302 14.8852 157.67 14.5473 159.196 14.5473C160.667 14.5473 161.988 14.8665 163.161 15.5049C164.352 16.1245 165.292 17.0258 165.981 18.2087C166.669 19.3728 167.014 20.7717 167.014 22.4053C167.014 22.5742 167.004 22.7714 166.986 22.9967C166.967 23.2033 166.949 23.4004 166.93 23.5882H154.729V21.0252H164.64L162.965 21.7856C162.965 20.997 162.807 20.3117 162.491 19.7296C162.174 19.1475 161.737 18.6969 161.178 18.3777C160.62 18.0397 159.968 17.8707 159.224 17.8707C158.479 17.8707 157.819 18.0397 157.242 18.3777C156.683 18.6969 156.246 19.1569 155.929 19.7578C155.613 20.3398 155.455 21.0346 155.455 21.842V22.5179C155.455 23.3441 155.632 24.0764 155.985 24.7148C156.357 25.3344 156.869 25.8132 157.521 26.1512C158.191 26.4704 158.973 26.63 159.866 26.63C160.667 26.63 161.365 26.5079 161.96 26.2638C162.574 26.0198 163.133 25.6536 163.635 25.1654L165.953 27.7003C165.264 28.4889 164.399 29.0991 163.356 29.531C162.314 29.9441 161.113 30.1506 159.754 30.1506Z" fill="white"/>
<path d="M174.385 30.1506C172.971 30.1506 171.696 29.8314 170.56 29.193C169.425 28.5358 168.522 27.6251 167.852 26.461C167.201 25.2969 166.875 23.9262 166.875 22.3489C166.875 20.7529 167.201 19.3728 167.852 18.2087C168.522 17.0445 169.425 16.1433 170.56 15.5049C171.696 14.8665 172.971 14.5473 174.385 14.5473C175.651 14.5473 176.759 14.8289 177.708 15.3922C178.657 15.9555 179.392 16.8098 179.914 17.9552C180.435 19.1006 180.695 20.5652 180.695 22.3489C180.695 24.1139 180.444 25.5785 179.942 26.7426C179.439 27.888 178.713 28.7424 177.764 29.3057C176.833 29.869 175.707 30.1506 174.385 30.1506ZM175.139 26.5455C175.847 26.5455 176.489 26.3765 177.066 26.0385C177.643 25.7005 178.099 25.2217 178.434 24.6021C178.788 23.9637 178.964 23.2127 178.964 22.3489C178.964 21.4664 178.788 20.7154 178.434 20.0957C178.099 19.4761 177.643 18.9973 177.066 18.6593C176.489 18.3214 175.847 18.1524 175.139 18.1524C174.413 18.1524 173.762 18.3214 173.185 18.6593C172.608 18.9973 172.142 19.4761 171.789 20.0957C171.454 20.7154 171.286 21.4664 171.286 22.3489C171.286 23.2127 171.454 23.9637 171.789 24.6021C172.142 25.2217 172.608 25.7005 173.185 26.0385C173.762 26.3765 174.413 26.5455 175.139 26.5455ZM179.076 29.9253V26.8271L179.16 22.3208L178.881 17.8425V9.02694H183.236V29.9253H179.076Z" fill="white"/>
<path d="M185.29 29.9253V14.7726H189.645V29.9253H185.29ZM187.467 12.6602C186.667 12.6602 186.016 12.4255 185.513 11.9561C185.01 11.4867 184.759 10.9046 184.759 10.2099C184.759 9.51513 185.01 8.93306 185.513 8.46364C186.016 7.99423 186.667 7.75952 187.467 7.75952C188.268 7.75952 188.919 7.98484 189.422 8.43548C189.924 8.86734 190.176 9.43064 190.176 10.1254C190.176 10.8577 189.924 11.4679 189.422 11.9561C188.938 12.4255 188.286 12.6602 187.467 12.6602Z" fill="white"/>
<path d="M200.924 29.9253V26.968L200.644 26.3202V21.0252C200.644 20.0864 200.356 19.3541 199.779 18.8283C199.22 18.3026 198.355 18.0397 197.182 18.0397C196.382 18.0397 195.591 18.1711 194.809 18.434C194.046 18.6781 193.394 19.0161 192.855 19.4479L191.291 16.378C192.11 15.7959 193.097 15.3453 194.251 15.0261C195.405 14.7069 196.577 14.5473 197.769 14.5473C200.058 14.5473 201.836 15.0918 203.101 16.1808C204.367 17.2699 205 18.9691 205 21.2787V29.9253H200.924ZM196.345 30.1506C195.172 30.1506 194.167 29.9534 193.329 29.5591C192.492 29.1461 191.849 28.5921 191.403 27.8974C190.956 27.2027 190.733 26.4234 190.733 25.5597C190.733 24.6584 190.947 23.8698 191.375 23.1939C191.822 22.5179 192.52 21.9922 193.469 21.6166C194.418 21.2223 195.656 21.0252 197.182 21.0252H201.175V23.5882H197.657C196.633 23.5882 195.926 23.7572 195.535 24.0952C195.163 24.4331 194.977 24.8556 194.977 25.3626C194.977 25.9259 195.191 26.3765 195.619 26.7145C196.065 27.0337 196.67 27.1933 197.434 27.1933C198.159 27.1933 198.811 27.0243 199.388 26.6863C199.965 26.3296 200.384 25.8132 200.644 25.1373L201.314 27.1651C200.998 28.1415 200.421 28.8832 199.583 29.3901C198.746 29.8971 197.666 30.1506 196.345 30.1506Z" fill="white"/>
<path d="M18.8646 31.9129C18.0822 32.7022 16.8063 32.7022 16.0239 31.9129L11.434 27.2829C7.18292 22.9945 0 26.0259 0 32.0888V38C0 39.1046 0.89543 40 2 40H32.8885C33.9931 40 34.8885 39.1046 34.8885 38V20.607C34.8885 18.821 32.7255 17.9306 31.4681 19.199L18.8646 31.9129Z" fill="#FF5D3C"/>
<path d="M16.0239 8.08715C16.8063 7.29786 18.0822 7.29786 18.8646 8.08715L23.4544 12.7172C27.7056 17.0055 34.8885 13.9741 34.8885 7.91127V2C34.8885 0.895432 33.9931 0 32.8885 0H2C0.895428 0 0 0.895431 0 2V19.393C0 21.179 2.16298 22.0695 3.42037 20.8011L16.0239 8.08715Z" fill="#FF5D3C"/>
</svg>
